<svg width="112" height="112" viewBox="0 0 112 112" fill="none" xmlns="http://www.w3.org/2000/svg">
<g clip-path="url(#clip0_2:15066)">
<path d="M9.52736 42.0701H23.3731V97.453H9.52736C8.30332 97.453 7.12941 96.9668 6.26388 96.1013C5.39836 95.2357 4.91211 94.0618 4.91211 92.8378V46.6853C4.91211 45.4613 5.39836 44.2874 6.26388 43.4218C7.12941 42.5563 8.30332 42.0701 9.52736 42.0701ZM33.9559 36.1025L63.4935 6.56495C63.886 6.17125 64.4076 5.93251 64.9621 5.89266C65.5167 5.8528 66.067 6.01451 66.5118 6.34804L70.4486 9.3018C71.542 10.1226 72.3678 11.2488 72.8221 12.5383C73.2763 13.8278 73.3385 15.2229 73.0009 16.5477L67.6795 37.4548H97.2171C99.6652 37.4548 102.013 38.4273 103.744 40.1584C105.475 41.8894 106.448 44.2372 106.448 46.6853V56.3958C106.449 57.602 106.214 58.7968 105.755 59.9126L91.4711 94.5962C91.1226 95.4418 90.5308 96.1648 89.7707 96.6734C89.0106 97.1821 88.1166 97.4534 87.202 97.453H37.2188C35.9948 97.453 34.8209 96.9668 33.9554 96.1013C33.0898 95.2357 32.6036 94.0618 32.6036 92.8378V39.3655C32.6039 38.1416 33.0903 36.9679 33.9559 36.1025Z" fill="#FCA154"/>
</g>
<defs>
<clipPath id="clip0_2:15066">
<rect width="110.766" height="110.766" fill="white" transform="translate(0.296875 0.532227)"/>
</clipPath>
</defs>
</svg>
