<svg width="111" height="111" viewBox="0 0 111 111" fill="none" xmlns="http://www.w3.org/2000/svg">
<g clip-path="url(#clip0_16:168)">
<path d="M55.3829 4.61572L93.3064 13.0432C94.3313 13.271 95.2479 13.8414 95.9049 14.6604C96.5619 15.4793 96.92 16.4978 96.9202 17.5476V63.6401C96.9198 68.1988 95.7941 72.6868 93.6428 76.7059C91.4916 80.7251 88.3813 84.1509 84.5882 86.6795L55.3829 106.151L26.1776 86.6795C22.3852 84.1514 19.2754 80.7262 17.1241 76.708C14.9729 72.6897 13.8468 68.2026 13.8457 63.6447V17.5476C13.8459 16.4978 14.204 15.4793 14.861 14.6604C15.518 13.8414 16.4346 13.271 17.4594 13.0432L55.3829 4.61572ZM55.3829 32.3072C53.3511 32.3073 51.376 32.9778 49.764 34.2148C48.1521 35.4517 46.9933 37.186 46.4674 39.1486C45.9415 41.1113 46.0779 43.1926 46.8554 45.0698C47.6329 46.9471 49.0081 48.5153 50.7677 49.5313V69.2292H59.9982L60.0028 49.5313C61.7627 48.5151 63.1381 46.9465 63.9155 45.0688C64.693 43.1911 64.829 41.1093 64.3025 39.1464C63.776 37.1835 62.6165 35.4493 61.0037 34.2127C59.391 32.9761 57.4152 32.3063 55.3829 32.3072Z" fill="#FCA154"/>
</g>
<defs>
<clipPath id="clip0_16:168">
<rect width="110.766" height="110.766" fill="white"/>
</clipPath>
</defs>
</svg>
