<svg width="96" height="96" viewBox="0 0 96 96" fill="none" xmlns="http://www.w3.org/2000/svg">
<path d="M36 76H48V51.768L32 37.816L16 51.768V76H28V60H36V76ZM84 84H12C10.9391 84 9.92172 83.5786 9.17157 82.8284C8.42143 82.0783 8 81.0609 8 80V49.948C7.99994 49.3764 8.12236 48.8115 8.35903 48.2913C8.5957 47.771 8.94111 47.3075 9.372 46.932L24 34.176V16C24 14.9391 24.4214 13.9217 25.1716 13.1716C25.9217 12.4214 26.9391 12 28 12H84C85.0609 12 86.0783 12.4214 86.8284 13.1716C87.5786 13.9217 88 14.9391 88 16V80C88 81.0609 87.5786 82.0783 86.8284 82.8284C86.0783 83.5786 85.0609 84 84 84ZM64 44V52H72V44H64ZM64 60V68H72V60H64ZM64 28V36H72V28H64ZM48 28V36H56V28H48Z" fill="white"/>
</svg>
