<svg width="96" height="98" viewBox="0 0 96 98" fill="none" xmlns="http://www.w3.org/2000/svg">
<path d="M68 12.25H84C85.0609 12.25 86.0783 12.6802 86.8284 13.4459C87.5786 14.2117 88 15.2503 88 16.3333V81.6666C88 82.7496 87.5786 83.7882 86.8284 84.554C86.0783 85.3198 85.0609 85.75 84 85.75H12C10.9391 85.75 9.92172 85.3198 9.17157 84.554C8.42143 83.7882 8 82.7496 8 81.6666V16.3333C8 15.2503 8.42143 14.2117 9.17157 13.4459C9.92172 12.6802 10.9391 12.25 12 12.25H28V4.0833H36V12.25H60V4.0833H68V12.25ZM16 36.75V77.5833H80V36.75H16ZM24 53.0833H44V69.4166H24V53.0833Z" fill="white"/>
</svg>
