<svg width="2419" height="332" viewBox="0 0 2419 332" fill="none" xmlns="http://www.w3.org/2000/svg">
<path d="M0 211.02V178.05L31.29 172.8V93H249.48V169.02L86.1 196.53V240H31.29V205.77L0 211.02ZM86.1 163.56L194.67 145.29V122.82H86.1V163.56ZM262.09 122.82V93H348.19V210.18H435.97V192.33L490.78 184.77V240H293.38V122.82H262.09ZM499.16 122.82V93H585.26V195.9L612.14 210.18H693.62V93H748.43V240H597.44L530.45 204.3V122.82H499.16ZM790.453 240V87.12L923.803 126.39L1056.94 87.12V240H984.283V210.18H1002.13V138.36L951.103 152.85V240H896.293V152.85L845.263 138.36V210.18H863.113V240H790.453Z" fill="#FE8A1E"/>
<path d="M1351.75 38V115H1334.04V52.52H1299.28V115H1281.57V38H1351.75ZM1407.58 116.32C1399.58 116.32 1392.36 114.597 1385.91 111.15C1379.53 107.703 1374.5 102.973 1370.84 96.96C1367.24 90.8733 1365.45 84.0533 1365.45 76.5C1365.45 68.9467 1367.24 62.1633 1370.84 56.15C1374.5 50.0633 1379.53 45.2967 1385.91 41.85C1392.36 38.4033 1399.58 36.68 1407.58 36.68C1415.57 36.68 1422.76 38.4033 1429.14 41.85C1435.52 45.2967 1440.54 50.0633 1444.21 56.15C1447.87 62.1633 1449.71 68.9467 1449.71 76.5C1449.71 84.0533 1447.87 90.8733 1444.21 96.96C1440.54 102.973 1435.52 107.703 1429.14 111.15C1422.76 114.597 1415.57 116.32 1407.58 116.32ZM1407.58 101.14C1412.12 101.14 1416.23 100.113 1419.9 98.06C1423.56 95.9333 1426.42 93 1428.48 89.26C1430.6 85.52 1431.67 81.2667 1431.67 76.5C1431.67 71.7333 1430.6 67.48 1428.48 63.74C1426.42 60 1423.56 57.1033 1419.9 55.05C1416.23 52.9233 1412.12 51.86 1407.58 51.86C1403.03 51.86 1398.92 52.9233 1395.26 55.05C1391.59 57.1033 1388.69 60 1386.57 63.74C1384.51 67.48 1383.49 71.7333 1383.49 76.5C1383.49 81.2667 1384.51 85.52 1386.57 89.26C1388.69 93 1391.59 95.9333 1395.26 98.06C1398.92 100.113 1403.03 101.14 1407.58 101.14ZM1540.71 100.48V130.95H1524.21V115H1469.87V130.95H1453.37L1453.48 100.48H1456.56C1461.18 100.333 1464.44 96.96 1466.35 90.36C1468.25 83.76 1469.43 74.3367 1469.87 62.09L1470.75 38H1529.93V100.48H1540.71ZM1485.6 63.74C1485.23 72.9067 1484.46 80.6067 1483.29 86.84C1482.11 93 1480.32 97.5467 1477.9 100.48H1512.33V52.52H1485.93L1485.6 63.74ZM1552.7 38H1614.85V52.19H1570.41V68.03H1591.75C1601.07 68.03 1608.14 69.9733 1612.98 73.86C1617.9 77.7467 1620.35 83.3567 1620.35 90.69C1620.35 98.39 1617.64 104.367 1612.21 108.62C1606.79 112.873 1599.12 115 1589.22 115H1552.7V38ZM1588.23 101.8C1592.78 101.8 1596.26 100.92 1598.68 99.16C1601.1 97.3267 1602.31 94.6867 1602.31 91.24C1602.31 84.4933 1597.62 81.12 1588.23 81.12H1570.41V101.8H1588.23ZM1670.65 116.32C1662.66 116.32 1655.44 114.597 1648.98 111.15C1642.6 107.703 1637.58 102.973 1633.91 96.96C1630.32 90.8733 1628.52 84.0533 1628.52 76.5C1628.52 68.9467 1630.32 62.1633 1633.91 56.15C1637.58 50.0633 1642.6 45.2967 1648.98 41.85C1655.44 38.4033 1662.66 36.68 1670.65 36.68C1678.65 36.68 1685.83 38.4033 1692.21 41.85C1698.59 45.2967 1703.62 50.0633 1707.28 56.15C1710.95 62.1633 1712.78 68.9467 1712.78 76.5C1712.78 84.0533 1710.95 90.8733 1707.28 96.96C1703.62 102.973 1698.59 107.703 1692.21 111.15C1685.83 114.597 1678.65 116.32 1670.65 116.32ZM1670.65 101.14C1675.2 101.14 1679.31 100.113 1682.97 98.06C1686.64 95.9333 1689.5 93 1691.55 89.26C1693.68 85.52 1694.74 81.2667 1694.74 76.5C1694.74 71.7333 1693.68 67.48 1691.55 63.74C1689.5 60 1686.64 57.1033 1682.97 55.05C1679.31 52.9233 1675.2 51.86 1670.65 51.86C1666.11 51.86 1662 52.9233 1658.33 55.05C1654.67 57.1033 1651.77 60 1649.64 63.74C1647.59 67.48 1646.56 71.7333 1646.56 76.5C1646.56 81.2667 1647.59 85.52 1649.64 89.26C1651.77 93 1654.67 95.9333 1658.33 98.06C1662 100.113 1666.11 101.14 1670.65 101.14ZM1759.84 38C1766.66 38 1772.56 39.1367 1777.55 41.41C1782.61 43.6833 1786.5 46.91 1789.21 51.09C1791.92 55.27 1793.28 60.22 1793.28 65.94C1793.28 71.5867 1791.92 76.5367 1789.21 80.79C1786.5 84.97 1782.61 88.1967 1777.55 90.47C1772.56 92.67 1766.66 93.77 1759.84 93.77H1744.33V115H1726.51V38H1759.84ZM1758.85 79.25C1764.2 79.25 1768.27 78.1133 1771.06 75.84C1773.85 73.4933 1775.24 70.1933 1775.24 65.94C1775.24 61.6133 1773.85 58.3133 1771.06 56.04C1768.27 53.6933 1764.2 52.52 1758.85 52.52H1744.33V79.25H1758.85ZM1281.57 181H1299.28V231.16L1336.02 181H1352.74V258H1335.14V207.95L1298.4 258H1281.57V181ZM1482.48 243.48V273.95H1465.98V258H1411.64V273.95H1395.14L1395.25 243.48H1398.33C1402.95 243.333 1406.22 239.96 1408.12 233.36C1410.03 226.76 1411.2 217.337 1411.64 205.09L1412.52 181H1471.7V243.48H1482.48ZM1427.37 206.74C1427.01 215.907 1426.24 223.607 1425.06 229.84C1423.89 236 1422.09 240.547 1419.67 243.48H1454.1V195.52H1427.7L1427.37 206.74ZM1531.22 259.32C1523.23 259.32 1516 257.597 1509.55 254.15C1503.17 250.703 1498.15 245.973 1494.48 239.96C1490.89 233.873 1489.09 227.053 1489.09 219.5C1489.09 211.947 1490.89 205.163 1494.48 199.15C1498.15 193.063 1503.17 188.297 1509.55 184.85C1516 181.403 1523.23 179.68 1531.22 179.68C1539.21 179.68 1546.4 181.403 1552.78 184.85C1559.16 188.297 1564.18 193.063 1567.85 199.15C1571.52 205.163 1573.35 211.947 1573.35 219.5C1573.35 227.053 1571.52 233.873 1567.85 239.96C1564.18 245.973 1559.16 250.703 1552.78 254.15C1546.4 257.597 1539.21 259.32 1531.22 259.32ZM1531.22 244.14C1535.77 244.14 1539.87 243.113 1543.54 241.06C1547.21 238.933 1550.07 236 1552.12 232.26C1554.25 228.52 1555.31 224.267 1555.31 219.5C1555.31 214.733 1554.25 210.48 1552.12 206.74C1550.07 203 1547.21 200.103 1543.54 198.05C1539.87 195.923 1535.77 194.86 1531.22 194.86C1526.67 194.86 1522.57 195.923 1518.9 198.05C1515.23 200.103 1512.34 203 1510.21 206.74C1508.16 210.48 1507.13 214.733 1507.13 219.5C1507.13 224.267 1508.16 228.52 1510.21 232.26C1512.34 236 1515.23 238.933 1518.9 241.06C1522.57 243.113 1526.67 244.14 1531.22 244.14ZM1623.49 259.32C1615.64 259.32 1608.53 257.633 1602.15 254.26C1595.84 250.813 1590.85 246.083 1587.19 240.07C1583.59 233.983 1581.8 227.127 1581.8 219.5C1581.8 211.873 1583.59 205.053 1587.19 199.04C1590.85 192.953 1595.84 188.223 1602.15 184.85C1608.53 181.403 1615.68 179.68 1623.6 179.68C1630.27 179.68 1636.28 180.853 1641.64 183.2C1647.06 185.547 1651.61 188.92 1655.28 193.32L1643.84 203.88C1638.63 197.867 1632.18 194.86 1624.48 194.86C1619.71 194.86 1615.46 195.923 1611.72 198.05C1607.98 200.103 1605.04 203 1602.92 206.74C1600.86 210.48 1599.84 214.733 1599.84 219.5C1599.84 224.267 1600.86 228.52 1602.92 232.26C1605.04 236 1607.98 238.933 1611.72 241.06C1615.46 243.113 1619.71 244.14 1624.48 244.14C1632.18 244.14 1638.63 241.097 1643.84 235.01L1655.28 245.57C1651.61 250.043 1647.06 253.453 1641.64 255.8C1636.21 258.147 1630.16 259.32 1623.49 259.32ZM1724.99 195.52H1700.35V258H1682.75V195.52H1658.22V181H1724.99V195.52ZM1784.45 241.5H1748.7L1741.88 258H1723.62L1757.94 181H1775.54L1809.97 258H1791.27L1784.45 241.5ZM1778.84 227.97L1766.63 198.49L1754.42 227.97H1778.84ZM1873.53 217.85C1878.23 219.243 1881.82 221.517 1884.31 224.67C1886.81 227.823 1888.05 231.71 1888.05 236.33C1888.05 243.15 1885.45 248.467 1880.24 252.28C1875.11 256.093 1867.74 258 1858.13 258H1820.18V181H1856.04C1864.99 181 1871.96 182.723 1876.94 186.17C1881.93 189.617 1884.42 194.53 1884.42 200.91C1884.42 204.723 1883.47 208.097 1881.56 211.03C1879.66 213.89 1876.98 216.163 1873.53 217.85ZM1837.89 212.9H1854.5C1858.39 212.9 1861.32 212.13 1863.3 210.59C1865.28 208.977 1866.27 206.63 1866.27 203.55C1866.27 200.543 1865.25 198.233 1863.19 196.62C1861.21 195.007 1858.32 194.2 1854.5 194.2H1837.89V212.9ZM1857.47 244.8C1865.83 244.8 1870.01 241.5 1870.01 234.9C1870.01 228.52 1865.83 225.33 1857.47 225.33H1837.89V244.8H1857.47ZM1931.96 226.98H1919.64V258H1901.93V181H1919.64V212.13H1932.4L1952.64 181H1971.45L1946.26 218.18L1972.22 258H1951.98L1931.96 226.98ZM2031.2 241.5H1995.45L1988.63 258H1970.37L2004.69 181H2022.29L2056.72 258H2038.02L2031.2 241.5ZM2025.59 227.97L2013.38 198.49L2001.17 227.97H2025.59ZM2150.22 241.5H2114.47L2107.65 258H2089.39L2123.71 181H2141.31L2175.74 258H2157.04L2150.22 241.5ZM2144.61 227.97L2132.4 198.49L2120.19 227.97H2144.61ZM2239.3 217.85C2244 219.243 2247.59 221.517 2250.08 224.67C2252.58 227.823 2253.82 231.71 2253.82 236.33C2253.82 243.15 2251.22 248.467 2246.01 252.28C2240.88 256.093 2233.51 258 2223.9 258H2185.95V181H2221.81C2230.76 181 2237.73 182.723 2242.71 186.17C2247.7 189.617 2250.19 194.53 2250.19 200.91C2250.19 204.723 2249.24 208.097 2247.33 211.03C2245.43 213.89 2242.75 216.163 2239.3 217.85ZM2203.66 212.9H2220.27C2224.16 212.9 2227.09 212.13 2229.07 210.59C2231.05 208.977 2232.04 206.63 2232.04 203.55C2232.04 200.543 2231.02 198.233 2228.96 196.62C2226.98 195.007 2224.09 194.2 2220.27 194.2H2203.66V212.9ZM2223.24 244.8C2231.6 244.8 2235.78 241.5 2235.78 234.9C2235.78 228.52 2231.6 225.33 2223.24 225.33H2203.66V244.8H2223.24ZM2325.69 195.52H2301.05V258H2283.45V195.52H2258.92V181H2325.69V195.52ZM2372.55 259.32C2364.55 259.32 2357.33 257.597 2350.88 254.15C2344.5 250.703 2339.47 245.973 2335.81 239.96C2332.21 233.873 2330.42 227.053 2330.42 219.5C2330.42 211.947 2332.21 205.163 2335.81 199.15C2339.47 193.063 2344.5 188.297 2350.88 184.85C2357.33 181.403 2364.55 179.68 2372.55 179.68C2380.54 179.68 2387.73 181.403 2394.11 184.85C2400.49 188.297 2405.51 193.063 2409.18 199.15C2412.84 205.163 2414.68 211.947 2414.68 219.5C2414.68 227.053 2412.84 233.873 2409.18 239.96C2405.51 245.973 2400.49 250.703 2394.11 254.15C2387.73 257.597 2380.54 259.32 2372.55 259.32ZM2372.55 244.14C2377.09 244.14 2381.2 243.113 2384.87 241.06C2388.53 238.933 2391.39 236 2393.45 232.26C2395.57 228.52 2396.64 224.267 2396.64 219.5C2396.64 214.733 2395.57 210.48 2393.45 206.74C2391.39 203 2388.53 200.103 2384.87 198.05C2381.2 195.923 2377.09 194.86 2372.55 194.86C2368 194.86 2363.89 195.923 2360.23 198.05C2356.56 200.103 2353.66 203 2351.54 206.74C2349.48 210.48 2348.46 214.733 2348.46 219.5C2348.46 224.267 2349.48 228.52 2351.54 232.26C2353.66 236 2356.56 238.933 2360.23 241.06C2363.89 243.113 2368 244.14 2372.55 244.14Z" fill="white"/>
<line x1="1181" x2="1181" y2="300" stroke="#FE8A1E" stroke-width="12"/>
</svg>
