<svg width="112" height="112" viewBox="0 0 112 112" fill="none" xmlns="http://www.w3.org/2000/svg">
<g clip-path="url(#clip0_2:15738)">
<path d="M25.404 21.9125C30.1426 17.6677 35.7084 14.4496 41.7512 12.4604C43.4791 14.6251 45.6726 16.3725 48.1688 17.5726C50.665 18.7728 53.3995 19.3948 56.1692 19.3926C58.9389 19.3948 61.6735 18.7728 64.1697 17.5726C66.6659 16.3725 68.8594 14.6251 70.5873 12.4604C76.6301 14.4496 82.1959 17.6677 86.9345 21.9125C85.9261 24.4899 85.5112 27.2613 85.7205 30.021C85.9298 32.7807 86.758 35.4578 88.1437 37.8535C89.5264 40.2539 91.4325 42.3116 93.7201 43.8738C96.0078 45.4359 98.6181 46.4622 101.357 46.8764C102.652 53.1019 102.652 59.5272 101.357 65.7527C96.0034 66.5742 91.0651 69.7218 88.1437 74.7755C86.7573 77.1719 85.9287 79.8498 85.7194 82.6104C85.51 85.3709 85.9254 88.1432 86.9345 90.7212C82.1954 94.9643 76.6297 98.1809 70.5873 100.169C68.859 98.0048 66.6652 96.2583 64.1691 95.059C61.6729 93.8597 58.9386 93.2383 56.1692 93.2411C53.3995 93.2389 50.665 93.8609 48.1688 95.0611C45.6726 96.2612 43.4791 98.0086 41.7512 100.173C35.7088 98.1855 30.143 94.9689 25.404 90.7258C26.4131 88.1478 26.8284 85.3756 26.6191 82.615C26.4098 79.8544 25.5811 77.1765 24.1948 74.7801C22.8116 72.3807 20.9053 70.3238 18.6177 68.7625C16.33 67.2012 13.7199 66.1756 10.9813 65.762C9.68591 59.535 9.68591 53.108 10.9813 46.881C13.7203 46.4668 16.3307 45.4405 18.6184 43.8784C20.906 42.3163 22.8121 40.2585 24.1948 37.8582C25.5804 35.4624 26.4087 32.7853 26.618 30.0256C26.8273 27.2659 26.4124 24.4945 25.404 21.9171V21.9125ZM63.0921 68.305C64.6795 67.4025 66.0726 66.1949 67.1914 64.7518C68.3101 63.3087 69.1324 61.6585 69.6108 59.8963C70.0892 58.1341 70.2144 56.2947 69.979 54.484C69.7437 52.6732 69.1525 50.9269 68.2395 49.3456C67.3264 47.7643 66.1097 46.3791 64.6592 45.27C63.2087 44.1608 61.5531 43.3495 59.7878 42.8828C58.0224 42.4161 56.1822 42.3031 54.3731 42.5505C52.564 42.7979 50.8216 43.4006 49.2464 44.3241C46.0922 46.1732 43.7975 49.1949 42.863 52.7296C41.9284 56.2644 42.4299 60.0253 44.2581 63.1916C46.0862 66.358 49.0926 68.6727 52.6211 69.6307C56.1495 70.5886 59.9137 70.1121 63.0921 68.305Z" fill="#FCA154"/>
</g>
<defs>
<clipPath id="clip0_2:15738">
<rect width="110.766" height="110.766" fill="white" transform="translate(0.788086 0.936035)"/>
</clipPath>
</defs>
</svg>
