<svg width="2483" height="332" viewBox="0 0 2483 332" fill="none" xmlns="http://www.w3.org/2000/svg">
<path d="M0 211.02V178.05L31.29 172.8V93H249.48V169.02L86.1 196.53V240H31.29V205.77L0 211.02ZM86.1 163.56L194.67 145.29V122.82H86.1V163.56ZM262.09 122.82V93H348.19V210.18H435.97V192.33L490.78 184.77V240H293.38V122.82H262.09ZM499.16 122.82V93H585.26V195.9L612.14 210.18H693.62V93H748.43V240H597.44L530.45 204.3V122.82H499.16ZM790.453 240V87.12L923.803 126.39L1056.94 87.12V240H984.283V210.18H1002.13V138.36L951.103 152.85V240H896.293V152.85L845.263 138.36V210.18H863.113V240H790.453Z" fill="#FE8A1E"/>
<path d="M1351.75 38V115H1334.04V52.52H1299.28V115H1281.57V38H1351.75ZM1370.84 38H1388.55V115H1370.84V38ZM1486.57 100.48V130.95H1470.07V115H1415.73V130.95H1399.23L1399.34 100.48H1402.42C1407.04 100.333 1410.3 96.96 1412.21 90.36C1414.11 83.76 1415.29 74.3367 1415.73 62.09L1416.61 38H1475.79V100.48H1486.57ZM1431.46 63.74C1431.09 72.9067 1430.32 80.6067 1429.15 86.84C1427.97 93 1426.18 97.5467 1423.76 100.48H1458.19V52.52H1431.79L1431.46 63.74ZM1498.56 38H1560.71V52.19H1516.27V68.03H1537.61C1546.93 68.03 1554 69.9733 1558.84 73.86C1563.76 77.7467 1566.21 83.3567 1566.21 90.69C1566.21 98.39 1563.5 104.367 1558.07 108.62C1552.65 112.873 1544.98 115 1535.08 115H1498.56V38ZM1534.09 101.8C1538.64 101.8 1542.12 100.92 1544.54 99.16C1546.96 97.3267 1548.17 94.6867 1548.17 91.24C1548.17 84.4933 1543.48 81.12 1534.09 81.12H1516.27V101.8H1534.09ZM1579.77 38H1597.48V115H1579.77V38ZM1649.95 38C1656.77 38 1662.67 39.1367 1667.66 41.41C1672.72 43.6833 1676.61 46.91 1679.32 51.09C1682.03 55.27 1683.39 60.22 1683.39 65.94C1683.39 71.5867 1682.03 76.5367 1679.32 80.79C1676.61 84.97 1672.72 88.1967 1667.66 90.47C1662.67 92.67 1656.77 93.77 1649.95 93.77H1634.44V115H1616.62V38H1649.95ZM1648.96 79.25C1654.31 79.25 1658.38 78.1133 1661.17 75.84C1663.96 73.4933 1665.35 70.1933 1665.35 65.94C1665.35 61.6133 1663.96 58.3133 1661.17 56.04C1658.38 53.6933 1654.31 52.52 1648.96 52.52H1634.44V79.25H1648.96ZM1340.42 195.52H1315.78V258H1298.18V195.52H1273.65V181H1340.42V195.52ZM1399.88 241.5H1364.13L1357.31 258H1339.05L1373.37 181H1390.97L1425.4 258H1406.7L1399.88 241.5ZM1394.27 227.97L1382.06 198.49L1369.85 227.97H1394.27ZM1546.19 243.48V273.95H1529.69V258H1475.35V273.95H1458.85L1458.96 243.48H1462.04C1466.66 243.333 1469.92 239.96 1471.83 233.36C1473.73 226.76 1474.91 217.337 1475.35 205.09L1476.23 181H1535.41V243.48H1546.19ZM1491.08 206.74C1490.71 215.907 1489.94 223.607 1488.77 229.84C1487.59 236 1485.8 240.547 1483.38 243.48H1517.81V195.52H1491.41L1491.08 206.74ZM1594.92 259.32C1586.93 259.32 1579.7 257.597 1573.25 254.15C1566.87 250.703 1561.85 245.973 1558.18 239.96C1554.59 233.873 1552.79 227.053 1552.79 219.5C1552.79 211.947 1554.59 205.163 1558.18 199.15C1561.85 193.063 1566.87 188.297 1573.25 184.85C1579.7 181.403 1586.93 179.68 1594.92 179.68C1602.91 179.68 1610.1 181.403 1616.48 184.85C1622.86 188.297 1627.88 193.063 1631.55 199.15C1635.22 205.163 1637.05 211.947 1637.05 219.5C1637.05 227.053 1635.22 233.873 1631.55 239.96C1627.88 245.973 1622.86 250.703 1616.48 254.15C1610.1 257.597 1602.91 259.32 1594.92 259.32ZM1594.92 244.14C1599.47 244.14 1603.57 243.113 1607.24 241.06C1610.91 238.933 1613.77 236 1615.82 232.26C1617.95 228.52 1619.01 224.267 1619.01 219.5C1619.01 214.733 1617.95 210.48 1615.82 206.74C1613.77 203 1610.91 200.103 1607.24 198.05C1603.57 195.923 1599.47 194.86 1594.92 194.86C1590.37 194.86 1586.27 195.923 1582.6 198.05C1578.93 200.103 1576.04 203 1573.91 206.74C1571.86 210.48 1570.83 214.733 1570.83 219.5C1570.83 224.267 1571.86 228.52 1573.91 232.26C1576.04 236 1578.93 238.933 1582.6 241.06C1586.27 243.113 1590.37 244.14 1594.92 244.14ZM1687.19 259.32C1679.34 259.32 1672.23 257.633 1665.85 254.26C1659.54 250.813 1654.56 246.083 1650.89 240.07C1647.3 233.983 1645.5 227.127 1645.5 219.5C1645.5 211.873 1647.3 205.053 1650.89 199.04C1654.56 192.953 1659.54 188.223 1665.85 184.85C1672.23 181.403 1679.38 179.68 1687.3 179.68C1693.97 179.68 1699.99 180.853 1705.34 183.2C1710.77 185.547 1715.31 188.92 1718.98 193.32L1707.54 203.88C1702.33 197.867 1695.88 194.86 1688.18 194.86C1683.41 194.86 1679.16 195.923 1675.42 198.05C1671.68 200.103 1668.75 203 1666.62 206.74C1664.57 210.48 1663.54 214.733 1663.54 219.5C1663.54 224.267 1664.57 228.52 1666.62 232.26C1668.75 236 1671.68 238.933 1675.42 241.06C1679.16 243.113 1683.41 244.14 1688.18 244.14C1695.88 244.14 1702.33 241.097 1707.54 235.01L1718.98 245.57C1715.31 250.043 1710.77 253.453 1705.34 255.8C1699.91 258.147 1693.86 259.32 1687.19 259.32ZM1788.69 195.52H1764.05V258H1746.45V195.52H1721.92V181H1788.69V195.52ZM1848.15 241.5H1812.4L1805.58 258H1787.32L1821.64 181H1839.24L1873.67 258H1854.97L1848.15 241.5ZM1842.54 227.97L1830.33 198.49L1818.12 227.97H1842.54ZM1937.23 217.85C1941.93 219.243 1945.52 221.517 1948.01 224.67C1950.51 227.823 1951.75 231.71 1951.75 236.33C1951.75 243.15 1949.15 248.467 1943.94 252.28C1938.81 256.093 1931.44 258 1921.83 258H1883.88V181H1919.74C1928.69 181 1935.66 182.723 1940.64 186.17C1945.63 189.617 1948.12 194.53 1948.12 200.91C1948.12 204.723 1947.17 208.097 1945.26 211.03C1943.36 213.89 1940.68 216.163 1937.23 217.85ZM1901.59 212.9H1918.2C1922.09 212.9 1925.02 212.13 1927 210.59C1928.98 208.977 1929.97 206.63 1929.97 203.55C1929.97 200.543 1928.95 198.233 1926.89 196.62C1924.91 195.007 1922.02 194.2 1918.2 194.2H1901.59V212.9ZM1921.17 244.8C1929.53 244.8 1933.71 241.5 1933.71 234.9C1933.71 228.52 1929.53 225.33 1921.17 225.33H1901.59V244.8H1921.17ZM1995.66 226.98H1983.34V258H1965.63V181H1983.34V212.13H1996.1L2016.34 181H2035.15L2009.96 218.18L2035.92 258H2015.68L1995.66 226.98ZM2094.9 241.5H2059.15L2052.33 258H2034.07L2068.39 181H2085.99L2120.42 258H2101.72L2094.9 241.5ZM2089.29 227.97L2077.08 198.49L2064.87 227.97H2089.29ZM2213.92 241.5H2178.17L2171.35 258H2153.09L2187.41 181H2205.01L2239.44 258H2220.74L2213.92 241.5ZM2208.31 227.97L2196.1 198.49L2183.89 227.97H2208.31ZM2303.01 217.85C2307.7 219.243 2311.29 221.517 2313.79 224.67C2316.28 227.823 2317.53 231.71 2317.53 236.33C2317.53 243.15 2314.92 248.467 2309.72 252.28C2304.58 256.093 2297.21 258 2287.61 258H2249.66V181H2285.52C2294.46 181 2301.43 182.723 2306.42 186.17C2311.4 189.617 2313.9 194.53 2313.9 200.91C2313.9 204.723 2312.94 208.097 2311.04 211.03C2309.13 213.89 2306.45 216.163 2303.01 217.85ZM2267.37 212.9H2283.98C2287.86 212.9 2290.8 212.13 2292.78 210.59C2294.76 208.977 2295.75 206.63 2295.75 203.55C2295.75 200.543 2294.72 198.233 2292.67 196.62C2290.69 195.007 2287.79 194.2 2283.98 194.2H2267.37V212.9ZM2286.95 244.8C2295.31 244.8 2299.49 241.5 2299.49 234.9C2299.49 228.52 2295.31 225.33 2286.95 225.33H2267.37V244.8H2286.95ZM2389.39 195.52H2364.75V258H2347.15V195.52H2322.62V181H2389.39V195.52ZM2436.25 259.32C2428.26 259.32 2421.03 257.597 2414.58 254.15C2408.2 250.703 2403.18 245.973 2399.51 239.96C2395.92 233.873 2394.12 227.053 2394.12 219.5C2394.12 211.947 2395.92 205.163 2399.51 199.15C2403.18 193.063 2408.2 188.297 2414.58 184.85C2421.03 181.403 2428.26 179.68 2436.25 179.68C2444.24 179.68 2451.43 181.403 2457.81 184.85C2464.19 188.297 2469.21 193.063 2472.88 199.15C2476.55 205.163 2478.38 211.947 2478.38 219.5C2478.38 227.053 2476.55 233.873 2472.88 239.96C2469.21 245.973 2464.19 250.703 2457.81 254.15C2451.43 257.597 2444.24 259.32 2436.25 259.32ZM2436.25 244.14C2440.8 244.14 2444.9 243.113 2448.57 241.06C2452.24 238.933 2455.1 236 2457.15 232.26C2459.28 228.52 2460.34 224.267 2460.34 219.5C2460.34 214.733 2459.28 210.48 2457.15 206.74C2455.1 203 2452.24 200.103 2448.57 198.05C2444.9 195.923 2440.8 194.86 2436.25 194.86C2431.7 194.86 2427.6 195.923 2423.93 198.05C2420.26 200.103 2417.37 203 2415.24 206.74C2413.19 210.48 2412.16 214.733 2412.16 219.5C2412.16 224.267 2413.19 228.52 2415.24 232.26C2417.37 236 2420.26 238.933 2423.93 241.06C2427.6 243.113 2431.7 244.14 2436.25 244.14Z" fill="black"/>
<line x1="1181" x2="1181" y2="300" stroke="#FE8A1E" stroke-width="12"/>
</svg>
