<svg width="111" height="111" viewBox="0 0 111 111" fill="none" xmlns="http://www.w3.org/2000/svg">
<g clip-path="url(#clip0_16:164)">
<path d="M83.0744 36.9225H92.3049C93.529 36.9225 94.7029 37.4087 95.5684 38.2742C96.4339 39.1398 96.9202 40.3137 96.9202 41.5377V96.9207C96.9202 98.1447 96.4339 99.3186 95.5684 100.184C94.7029 101.05 93.529 101.536 92.3049 101.536H18.461C17.2369 101.536 16.063 101.05 15.1975 100.184C14.332 99.3186 13.8457 98.1447 13.8457 96.9207V41.5377C13.8457 40.3137 14.332 39.1398 15.1975 38.2742C16.063 37.4087 17.2369 36.9225 18.461 36.9225H27.6914V32.3072C27.6914 24.963 30.6089 17.9195 35.8021 12.7264C40.9953 7.53321 48.0387 4.61572 55.3829 4.61572C62.7272 4.61572 69.7706 7.53321 74.9638 12.7264C80.1569 17.9195 83.0744 24.963 83.0744 32.3072V36.9225ZM50.7677 72.6076V83.0749H59.9982V72.6076C61.7579 71.5916 63.1332 70.0233 63.9108 68.1461C64.6884 66.2688 64.8248 64.1874 64.2989 62.2247C63.773 60.262 62.6142 58.5276 61.0021 57.2907C59.3901 56.0537 57.4149 55.3832 55.3829 55.3832C53.351 55.3832 51.3758 56.0537 49.7638 57.2907C48.1517 58.5276 46.9929 60.262 46.467 62.2247C45.9411 64.1874 46.0775 66.2688 46.8551 68.1461C47.6327 70.0233 49.008 71.5916 50.7677 72.6076V72.6076ZM73.8439 36.9225V32.3072C73.8439 27.4111 71.8989 22.7154 68.4368 19.2533C64.9747 15.7912 60.2791 13.8462 55.3829 13.8462C50.4868 13.8462 45.7912 15.7912 42.329 19.2533C38.8669 22.7154 36.9219 27.4111 36.9219 32.3072V36.9225H73.8439Z" fill="#FCA154"/>
</g>
<defs>
<clipPath id="clip0_16:164">
<rect width="110.766" height="110.766" fill="white"/>
</clipPath>
</defs>
</svg>
