<svg width="98" height="96" viewBox="0 0 98 96" fill="none" xmlns="http://www.w3.org/2000/svg">
<path d="M89.8327 40H48.9994V69.528C48.9994 75.164 51.58 80.464 55.9614 84H12.2493C11.1664 84 10.1278 83.5786 9.362 82.8284C8.59622 82.0783 8.16602 81.0609 8.16602 80V16C8.16602 14.9391 8.59622 13.9217 9.362 13.1716C10.1278 12.4214 11.1664 12 12.2493 12H42.5232L50.6898 20H85.7494C86.8323 20 87.8709 20.4214 88.6367 21.1716C89.4025 21.9217 89.8327 22.9391 89.8327 24V40ZM57.166 48H89.8327V69.528C89.8327 73.116 88.0115 76.464 84.9858 78.448L73.4994 85.996L62.0129 78.456C60.5194 77.4725 59.296 76.1439 58.4507 74.5875C57.6054 73.0312 57.1642 71.2949 57.166 69.532V48Z" fill="#FCA154"/>
</svg>
