<svg width="512" height="512" viewBox="0 0 512 512" fill="none" xmlns="http://www.w3.org/2000/svg">
<path d="M210.865 345.054V370.533C214.146 369.82 216.82 368.272 218.874 365.872C220.95 363.471 221.98 360.648 221.98 357.383C221.98 354.495 221.11 351.986 219.364 349.899C217.646 347.788 214.811 346.188 210.865 345.054Z" fill="#FCA154"/>
<path d="M134.346 149.927H145.863C145.864 149.927 145.864 149.927 145.865 149.927H266.216C266.218 149.927 266.222 149.927 266.225 149.927H277.737C285.341 149.927 291.527 143.778 291.527 136.218C291.527 128.662 285.34 122.514 277.737 122.514H268.966H143.117H134.346C126.743 122.514 120.557 128.662 120.557 136.218C120.557 143.777 126.743 149.927 134.346 149.927Z" fill="#FCA154"/>
<path d="M195.285 305.716C193.787 307.796 193.049 310.087 193.049 312.598C193.049 314.888 193.721 317.02 195.088 318.998C196.446 320.954 198.546 322.548 201.359 323.747V301.221C198.793 302.137 196.783 303.62 195.285 305.716Z" fill="#FCA154"/>
<path d="M206.041 243.931C153.432 243.931 110.631 286.524 110.631 338.877C110.631 391.231 153.432 433.824 206.041 433.824C258.655 433.824 301.459 391.231 301.459 338.877C301.459 286.524 258.655 243.931 206.041 243.931ZM230.861 374.892C226.067 380.267 219.409 383.598 210.866 384.929V397.063H201.357V385.068C193.851 384.151 187.763 381.402 183.049 376.754C178.343 372.113 175.353 365.538 174.038 357.078L191.045 355.078C191.732 358.541 193.048 361.515 194.97 364.024C196.892 366.533 199.011 368.337 201.358 369.471V342.252C192.851 339.831 186.625 336.171 182.678 331.262C178.701 326.33 176.713 320.372 176.713 313.354C176.713 306.247 178.964 300.267 183.452 295.446C187.94 290.608 193.903 287.829 201.357 287.095V280.7H210.866V287.095C217.829 287.916 223.362 290.273 227.491 294.157C231.598 298.05 234.229 303.244 235.37 309.753L218.766 311.885C217.735 306.779 215.104 303.317 210.866 301.489V326.884C221.375 329.684 228.537 333.351 232.337 337.816C236.153 342.305 238.052 348.051 238.052 355.079C238.052 362.919 235.662 369.516 230.861 374.892Z" fill="#FCA154"/>
<path d="M268.713 160.741C257.277 184.833 232.671 200.709 206.041 200.709C179.413 200.709 154.806 184.833 143.37 160.741C85.888 186.089 49 242.51 49 305.744V463.973H363.083V305.744C363.083 242.51 326.195 186.09 268.713 160.741ZM206.041 443.195C148.265 443.195 101.26 396.397 101.26 338.877C101.26 281.357 148.265 234.56 206.041 234.56C263.821 234.56 310.83 281.356 310.83 338.877C310.83 396.398 263.821 443.195 206.041 443.195Z" fill="#FCA154"/>
<path d="M264.282 48.0799L208.898 82.6969C207.388 83.6409 205.47 83.6459 203.953 82.7099L147.803 48.0269V113.142H264.282V48.0799Z" fill="#FCA154"/>
<path d="M206.041 191.338C228.103 191.338 248.566 178.709 258.946 159.297H153.137C163.518 178.709 183.98 191.338 206.041 191.338Z" fill="#FCA154"/>
<path d="M462.017 185.795H432.382C429.796 185.795 427.696 183.697 427.696 181.109V53H375.487V181.11C375.487 183.698 373.389 185.796 370.801 185.796H341.043L401.101 246.003L462.017 185.795ZM391.322 89.174H411.852V109.607H391.322V89.174V89.174ZM391.322 119.823H411.852V140.247H391.322V119.823V119.823Z" fill="#FCA154"/>
</svg>
