<svg width="98" height="98" viewBox="0 0 98 98" fill="none" xmlns="http://www.w3.org/2000/svg">
<path d="M77.5827 81.6663H20.416V85.7497C20.416 86.8326 19.9858 87.8713 19.22 88.637C18.4543 89.4028 17.4157 89.833 16.3327 89.833H12.2493C11.1664 89.833 10.1278 89.4028 9.362 88.637C8.59622 87.8713 8.16602 86.8326 8.16602 85.7497V48.9997L18.4274 21.6332C19.0111 20.0762 20.0561 18.7344 21.4228 17.7873C22.7895 16.8402 24.4127 16.3328 26.0755 16.333H71.9232C73.586 16.3328 75.2092 16.8402 76.5759 17.7873C77.9426 18.7344 78.9876 20.0762 79.5713 21.6332L89.8327 48.9997V85.7497C89.8327 86.8326 89.4025 87.8713 88.6367 88.637C87.8709 89.4028 86.8323 89.833 85.7494 89.833H81.666C80.5831 89.833 79.5444 89.4028 78.7787 88.637C78.0129 87.8713 77.5827 86.8326 77.5827 85.7497V81.6663ZM16.888 48.9997H81.1107L71.9232 24.4997H26.0755L16.888 48.9997ZM26.541 69.4163C28.1655 69.4163 29.7234 68.771 30.872 67.6224C32.0207 66.4737 32.666 64.9158 32.666 63.2913C32.666 61.6669 32.0207 60.109 30.872 58.9603C29.7234 57.8116 28.1655 57.1663 26.541 57.1663C24.9166 57.1663 23.3586 57.8116 22.21 58.9603C21.0613 60.109 20.416 61.6669 20.416 63.2913C20.416 64.9158 21.0613 66.4737 22.21 67.6224C23.3586 68.771 24.9166 69.4163 26.541 69.4163V69.4163ZM71.4577 69.4163C73.0821 69.4163 74.6401 68.771 75.7887 67.6224C76.9374 66.4737 77.5827 64.9158 77.5827 63.2913C77.5827 61.6669 76.9374 60.109 75.7887 58.9603C74.6401 57.8116 73.0821 57.1663 71.4577 57.1663C69.8332 57.1663 68.2753 57.8116 67.1267 58.9603C65.978 60.109 65.3327 61.6669 65.3327 63.2913C65.3327 64.9158 65.978 66.4737 67.1267 67.6224C68.2753 68.771 69.8332 69.4163 71.4577 69.4163V69.4163Z" fill="#FCA154"/>
</svg>
